<svg xmlns="http://www.w3.org/2000/svg" viewBox="0 0 64 64" aria-labelledby="title"
aria-describedby="desc" role="img" xmlns:xlink="http://www.w3.org/1999/xlink">
  <title>Movie Reel Film</title>
  <desc>A solid styled icon from Orion Icon Library.</desc>
  <path data-name="layer1"
  d="M35 3a28 28 0 0 0-15.8 51.2c-3.4 3.1-11.5 3.8-15 1.2a2 2 0 0 0-2.4 3.2 14.5 14.5 0 0 0 8.6 2.4c4.6 0 9.4-1.5 12.1-4.4l.3-.4A28 28 0 1 0 35 3zm-8 10a4 4 0 1 1-4 4 4 4 0 0 1 4-4zM15 31a4 4 0 1 1 4 4 4 4 0 0 1-4-4zm12 18a4 4 0 1 1 4-4 4 4 0 0 1-4 4zm5.4-12.6a1.9 1.9 0 0 1-1.4.6 2 2 0 0 1-2-2 2.1 2.1 0 0 1 .6-1.4 2.1 2.1 0 0 1 2.8 0A2 2 0 0 1 33 35a2 2 0 0 1-.6 1.4zm0-8a2 2 0 0 1-1.4.6 2 2 0 0 1-1.4-3.4 2 2 0 0 1 2.8 0A2 2 0 0 1 33 27a2 2 0 0 1-.6 1.4zM43 13a4 4 0 1 1-4 4 4 4 0 0 1 4-4zm-5.4 12.6a2 2 0 0 1 2.8 0 2 2 0 1 1-2.8 0zm0 10.8a2 2 0 0 1 0-2.8 2.1 2.1 0 0 1 2.8 0A2 2 0 0 1 41 35a2 2 0 0 1-3.4 1.4zM43 49a4 4 0 1 1 4-4 4 4 0 0 1-4 4zm8-14a4 4 0 1 1 4-4 4 4 0 0 1-4 4z"
  fill="#2c3032"></path>
</svg>